<svg id="Layer_1" height="512" fill="rgba(2,40,3, 0.5)" viewBox="0 0 512 512" width="512" xmlns="http://www.w3.org/2000/svg" data-name="Layer 1"><path d="m20.15 181.212c3.457 2.7 9.846 2.817 18.475.352a5 5 0 1 1 2.747 9.615 49.674 49.674 0 0 1 -13.494 2.136c-.744 0-1.468-.029-2.178-.078a9.7 9.7 0 0 0 1.549 7.073c2.813 3.633 9.765 5.18 19.778 4.466.611-9.193 3.075-17.16 7.114-22.4a38.556 38.556 0 0 1 12.673-10.286c23.422-12.444 27.174-30.5 27.326-40.155a43.286 43.286 0 0 1 2.543-13.526c.911-2.612.893-4.79-.057-6.661-1.968-3.875-7.326-5.652-7.379-5.668a5 5 0 1 1 2.911-9.567c.962.293 9.511 3.08 13.384 10.708a18.149 18.149 0 0 1 .583 14.482 33.309 33.309 0 0 0 -1.986 10.388c-.187 11.861-4.675 33.975-32.633 48.83a28.736 28.736 0 0 0 -9.442 7.551c-4.062 5.276-5.978 15.947-4.881 27.187a58.8 58.8 0 0 0 6.389 21.95 99.94 99.94 0 0 1 13.82-25.586 5 5 0 1 1 8.065 5.911q-11.625 15.866-14.844 31.283a4.984 4.984 0 0 1 -.264 1.34c-2.8 15.051.428 29.716 9.718 43.85a74.523 74.523 0 0 0 19.78 19.9c6.209 4.351 12.491 10.608 15.47 23.556 2.248-7.439 2.374-13.216 2.5-18.878.321-14.593.624-28.377 33.408-60.327a21.089 21.089 0 0 0 2.765-3.2c12.821-18.91-1.839-45.49-1.989-45.757a5 5 0 0 1 8.707-4.918 75.673 75.673 0 0 1 6.948 18.69 64.686 64.686 0 0 1 1.277 7.65c14.556-23.168 14.769-57.769 9.276-85.136-4.352-21.68-14.6-46.821-25.013-50.711-10.2-3.808-19.245-4.541-27.23-5.188-7.367-.6-13.729-1.112-19.123-3.92a50.886 50.886 0 0 0 -27.929-5.792c-8.906.782-15.148 3.873-18.553 9.188-4.542 7.09-3.645 16.9-2.383 23.136a30.442 30.442 0 0 1 16.351-2.6 5 5 0 0 1 -1.628 9.866c-.607-.089-12.657-1.675-21.1 11.294a36.937 36.937 0 0 0 -3.412 7c-5.332 13.94-24.023 24.406-31.812 28.26a.623.623 0 0 0 -.354.535c-.223 7.184 1.122 11.815 4.127 14.157z"/><path d="m415.413 177.042a131.036 131.036 0 0 1 37.019-.091 14.053 14.053 0 0 1 4.117-8.584c-6.96-5.208-19.664-12.6-31.555-8.369a52.1 52.1 0 0 0 -14.116 7.523c-4.894 3.461-8.861 5.905-16.2 5.911 4.005 2.896 10.471 5.129 20.735 3.61z"/><path d="m198.425 335.6c-5.82 1.459-10.2 2.829-12.788 3.7a107.355 107.355 0 0 1 -6.908 23.011 108.35 108.35 0 0 0 -4.306 12.36l-13.551 47.529h17.292a4.809 4.809 0 0 0 4.691-5.875l-3.107-13.662a14.817 14.817 0 0 1 .656-8.692 419.785 419.785 0 0 0 18.021-58.371z"/><path d="m445.5 420.168-11.161 1.763a6 6 0 0 0 -3.78 2.217l-3.452 4.389a1 1 0 0 0 .746 1.618l37.512 1.505 10.411-33.96a16.64 16.64 0 0 0 -2.458-14.668l-9.493-13.039a183.792 183.792 0 0 1 -29.836-65.036 162.626 162.626 0 0 0 -14.469-37.521 133.415 133.415 0 0 1 -18.755-6.853 1.826 1.826 0 0 0 -1.717.092 1.788 1.788 0 0 0 -.892 1.426c-.8 10.118-4.466 34.172-21 60.1a69.45 69.45 0 0 0 10.616 16.88c11.222 13.334 26.309 22.337 44.839 26.759a15.676 15.676 0 0 1 8.452 5.206l.213.254c5.664 6.763 18.931 22.6 14.774 39.33a12.845 12.845 0 0 1 -10.55 9.538z"/><path d="m167.906 248.314a39.61 39.61 0 0 1 -5.639 12.75 30.862 30.862 0 0 1 -4.064 4.753c-29.855 29.1-30.091 39.815-30.389 53.385a100.038 100.038 0 0 1 -.726 11.515l8.217 74.007a9.936 9.936 0 0 1 -7.982 10.9 33.526 33.526 0 0 0 -22.685 16.15l41.47.04a2.162 2.162 0 0 0 2.071-1.563l16.627-58.321a118.392 118.392 0 0 1 4.71-13.507c15.958-37.812 1.569-62.349 1.422-62.592a5 5 0 1 1 8.557-5.175c.5.821 8.695 14.82 7.421 37.71 15.418-4.717 52.435-13.642 94.672-6.735-1.183-35.395 17.119-76.366 18.19-78.731a5 5 0 0 1 9.108 4.129c-.336.743-33.284 74.494-7.779 103.748l40.946 42.1a8.92 8.92 0 0 1 -2.931 14.44l-20.777 8.751a22.11 22.11 0 0 0 -12.818 14.621l-.307 1.124h34.211a1.218 1.218 0 0 0 .955-.467l26.536-34.206a8.355 8.355 0 0 0 -.476-10.769c-6.221-6.827-9.027-12.558-12.31-21.385a37.125 37.125 0 0 1 5.884-36.041c22.852-28.4 27.311-56.758 28.167-67.632a11.844 11.844 0 0 1 16.7-9.841c46.483 21.051 69.428 4.324 78.968-7.519 10.269-12.75 14.053-25.456 11.246-37.766-3.553-15.586-16.647-26.751-26.78-31.577a4.2 4.2 0 0 0 -4.151 7.26c19.621 13.716 22.2 26.781 20.906 35.326-1.894 12.513-13.789 24.014-30.305 29.3-14.73 4.713-28.432 2.941-35.762-4.625-12.541-12.944-25.742-16.1-32.5-16.827a20 20 0 0 1 -13.364-7.239c-15.3-18.617-36.087-25.29-61.78-19.834-16.73 3.553-32.114 5.1-45.728 4.617a69.14 69.14 0 0 1 -63.96-49.893c-5.541-19.015-14.761-32.1-23.667-40.918a153.861 153.861 0 0 1 9.994 32.241c6.889 34.282 5.12 79.395-20.098 104.296z"/></svg>